<svg xmlns="http://www.w3.org/2000/svg" viewBox="0 0 64 64" aria-labelledby="title"
aria-describedby="desc" role="img" xmlns:xlink="http://www.w3.org/1999/xlink">
  <title>Setting</title>
  <desc>A solid styled icon from Orion Icon Library.</desc>
  <path data-name="layer1"
  d="M63 27l-7.055-.333a24.381 24.381 0 0 0-3.245-7.826l4.944-4.941a1.07 1.07 0 0 0 0-1.508L51.61 6.356a1.07 1.07 0 0 0-1.508 0L45.159 11.3a24.378 24.378 0 0 0-7.825-3.244L37 1a.959.959 0 0 0-1-1h-8a.959.959 0 0 0-1 1l-.333 7.055a24.378 24.378 0 0 0-7.826 3.245L13.9 6.356a1.07 1.07 0 0 0-1.508 0L6.356 12.39a1.07 1.07 0 0 0 0 1.508l4.944 4.943a24.381 24.381 0 0 0-3.244 7.825L1 27a.959.959 0 0 0-1 1v8a.959.959 0 0 0 1 1l7.055.333a24.38 24.38 0 0 0 3.245 7.826L6.356 50.1a1.07 1.07 0 0 0 0 1.508l6.034 6.034a1.07 1.07 0 0 0 1.508 0l4.943-4.942a24.385 24.385 0 0 0 7.825 3.244L27 63a.959.959 0 0 0 1 1h8a.959.959 0 0 0 1-1l.333-7.055a24.385 24.385 0 0 0 7.826-3.245l4.941 4.944a1.07 1.07 0 0 0 1.508 0l6.034-6.034a1.07 1.07 0 0 0 0-1.508L52.7 45.159a24.38 24.38 0 0 0 3.244-7.825L63 37a.959.959 0 0 0 1-1v-8a.959.959 0 0 0-1-1zM32 44a12 12 0 1 1 12-12 12 12 0 0 1-12 12z"
  fill="#ffffff"></path>
</svg>